<svg xmlns="http://www.w3.org/2000/svg" viewBox="0 0 286 270.83">
  <defs>
    <style>
      .cls-1 {
        opacity: 0.2;
      }

      .cls-2 {
        fill: #fff;
      }

      .cls-3 {
        fill: #f3feff;
      }

      .cls-4 {
        fill: none;
        stroke: #1e1e1e;
        stroke-linecap: round;
        stroke-linejoin: round;
        stroke-width: 3px;
      }

      .cls-5 {
        fill: #fff3ff;
      }

      .cls-6 {
        fill: #1e1e1e;
      }
    </style>
  </defs>
  <title>marshmellow</title>
  <g id="Layer_2" data-name="Layer 2">
    <g id="Layer_5" data-name="Layer 5">
      <g>
        <ellipse class="cls-1" cx="143" cy="211.38" rx="143" ry="59.45"/>
        <g>
          <path class="cls-2" d="M140.8,0c27.09,0,51.92,4.12,71.26,11A234.21,234.21,0,0,0,140.8.15,234.16,234.16,0,0,0,69.54,11C88.88,4.12,113.7,0,140.8,0Z"/>
          <path class="cls-2" d="M140.8,0C113.7,0,88.88,4.12,69.54,11A234.16,234.16,0,0,1,140.8.15,234.21,234.21,0,0,1,212.06,11C192.72,4.12,167.89,0,140.8,0Z"/>
          <path class="cls-2" d="M252.54,47.82c0,26.4-50,47.81-111.74,47.81S29.06,74.22,29.06,47.82a21.54,21.54,0,0,1,1.51-7.88l.06-.09C37.43,28.48,49.28,19,64.33,13c1.69-.68,3.42-1.33,5.21-2A234.16,234.16,0,0,1,140.8.15,234.21,234.21,0,0,1,212.06,11c1.78.63,3.52,1.28,5.2,2C232.31,19,244.16,28.48,251,39.85l.05.09A21.56,21.56,0,0,1,252.54,47.82Z"/>
          <path class="cls-3" d="M277.92,134.31a178.91,178.91,0,0,1-17.31,76.33c-3.11,6.66-9.09,12.44-17,16.57-28.86,15-64.39,23.9-102.8,23.9S66.86,242.24,38,227.21c-7.92-4.13-13.9-9.91-17-16.57A178.91,178.91,0,0,1,3.68,134.31c0-33.5,9.58-65.41,26.89-94.37a21.54,21.54,0,0,0-1.51,7.88c0,26.4,50,47.81,111.74,47.81S252.54,74.22,252.54,47.82A21.56,21.56,0,0,0,251,39.94C268.34,68.9,277.92,100.81,277.92,134.31Z"/>
        </g>
        <path class="cls-4" d="M156.76,166.24a16,16,0,0,1-31.93,0"/>
        <g>
          <circle class="cls-5" cx="83.55" cy="156.33" r="17.61"/>
          <circle class="cls-6" cx="95.66" cy="142.02" r="12.11"/>
          <circle class="cls-2" cx="98.96" cy="146.42" r="3.3"/>
        </g>
        <g>
          <circle class="cls-5" cx="198.05" cy="156.33" r="17.61"/>
          <circle class="cls-6" cx="185.94" cy="142.02" r="12.11"/>
          <circle class="cls-2" cx="182.63" cy="146.42" r="3.3"/>
        </g>
      </g>
    </g>
  </g>
</svg>
